<svg xmlns="http://www.w3.org/2000/svg" viewBox="0 0 48 48">
  <rect width="48" height="48" rx="11" fill="#09100c"/>
  <svg x="5" y="5" width="38" height="38" viewBox="0 -960 960 960">
    <defs>
      <linearGradient id="g" x1="0%" y1="0%" x2="100%" y2="100%">
        <stop offset="0%" stop-color="#4edea3"/>
        <stop offset="100%" stop-color="#10B981"/>
      </linearGradient>
    </defs>
    <path fill="url(#g)" d="M240-40q-50 0-85-35t-35-85q0-50 35-85t85-35q14 0 26 3t23 8l57-71q-28-31-39-70t-5-78l-81-27q-17 25-43 40t-58 15q-50 0-85-35T0-580q0-50 35-85t85-35q50 0 85 35t35 85v8l81 28q20-36 53.5-61t75.5-32v-87q-39-11-64.5-42.5T360-840q0-50 35-85t85-35q50 0 85 35t35 85q0 42-26 73.5T510-724v87q42 7 75.5 32t53.5 61l81-28v-8q0-50 35-85t85-35q50 0 85 35t35 85q0 50-35 85t-85 35q-32 0-58.5-15T739-515l-81 27q6 39-5 77.5T614-340l57 70q11-5 23-7.5t26-2.5q50 0 85 35t35 85q0 50-35 85t-85 35q-50 0-85-35t-35-85q0-20 6.5-38.5T624-232l-57-71q-41 23-87.5 23T392-303l-56 71q11 15 17.5 33.5T360-160q0 50-35 85t-85 35ZM120-540q17 0 28.5-11.5T160-580q0-17-11.5-28.5T120-620q-17 0-28.5 11.5T80-580q0 17 11.5 28.5T120-540Zm120 420q17 0 28.5-11.5T280-160q0-17-11.5-28.5T240-200q-17 0-28.5 11.5T200-160q0 17 11.5 28.5T240-120Zm240-680q17 0 28.5-11.5T520-840q0-17-11.5-28.5T480-880q-17 0-28.5 11.5T440-840q0 17 11.5 28.5T480-800Zm0 440q42 0 71-29t29-71q0-42-29-71t-71-29q-42 0-71 29t-29 71q0 42 29 71t71 29Zm240 240q17 0 28.5-11.5T760-160q0-17-11.5-28.5T720-200q-17 0-28.5 11.5T680-160q0 17 11.5 28.5T720-120Zm120-420q17 0 28.5-11.5T880-580q0-17-11.5-28.5T840-620q-17 0-28.5 11.5T800-580q0 17 11.5 28.5T840-540Z"/>
  </svg>
</svg>
